<svg xmlns="http://www.w3.org/2000/svg" width="51.75" height="51.75" viewBox="0 0 51.75 51.75">
  <g id="Сгруппировать_15" data-name="Сгруппировать 15" transform="translate(-975 -4104.25)">
    <g id="Сгруппировать_14" data-name="Сгруппировать 14">
      <path id="Контур_6" data-name="Контур 6" d="M24,0A24,24,0,1,1,0,24,24,24,0,0,1,24,0Z" transform="translate(975 4108)" fill="#ffb84b"/>
      <circle id="Эллипс_12" data-name="Эллипс 12" cx="24" cy="24" r="24" transform="translate(978 4105)" fill="none" stroke="#000" stroke-linecap="round" stroke-miterlimit="10" stroke-width="1.5"/>
    </g>
    <g id="Сгруппировать_8" data-name="Сгруппировать 8" transform="translate(985.838 4115.837)">
      <path id="Контур_2" data-name="Контур 2" d="M14.579,5.971c2.8,0,3.136.011,4.243.061a5.812,5.812,0,0,1,1.95.362,3.477,3.477,0,0,1,1.993,1.993,5.812,5.812,0,0,1,.362,1.95c.051,1.107.061,1.439.061,4.243s-.011,3.136-.061,4.243a5.812,5.812,0,0,1-.362,1.95,3.477,3.477,0,0,1-1.993,1.993,5.812,5.812,0,0,1-1.95.362c-1.107.051-1.439.061-4.243.061s-3.136-.011-4.243-.061a5.812,5.812,0,0,1-1.95-.362,3.477,3.477,0,0,1-1.993-1.993,5.812,5.812,0,0,1-.362-1.95c-.051-1.107-.061-1.439-.061-4.243s.011-3.136.061-4.243a5.811,5.811,0,0,1,.362-1.95A3.477,3.477,0,0,1,8.386,6.394a5.811,5.811,0,0,1,1.95-.362c1.107-.051,1.439-.061,4.243-.061m0-1.892c-2.852,0-3.209.012-4.329.063A7.707,7.707,0,0,0,7.7,4.63,5.369,5.369,0,0,0,4.63,7.7a7.707,7.707,0,0,0-.488,2.549c-.051,1.12-.063,1.477-.063,4.329s.012,3.209.063,4.329a7.707,7.707,0,0,0,.488,2.549A5.369,5.369,0,0,0,7.7,24.528a7.707,7.707,0,0,0,2.549.488c1.12.051,1.477.063,4.329.063s3.209-.012,4.329-.063a7.707,7.707,0,0,0,2.549-.488,5.369,5.369,0,0,0,3.071-3.071,7.707,7.707,0,0,0,.488-2.549c.051-1.12.063-1.477.063-4.329s-.012-3.209-.063-4.329A7.707,7.707,0,0,0,24.528,7.7,5.369,5.369,0,0,0,21.457,4.63a7.707,7.707,0,0,0-2.549-.488c-1.12-.051-1.477-.063-4.329-.063Z" transform="translate(0 0)" fill="#fff"/>
      <path id="Контур_3" data-name="Контур 3" d="M132.056,126.635a5.421,5.421,0,1,0,5.421,5.421A5.421,5.421,0,0,0,132.056,126.635Zm0,8.94a3.519,3.519,0,1,1,3.519-3.519A3.519,3.519,0,0,1,132.056,135.575Z" transform="translate(-117.477 -117.477)" fill="#fff"/>
      <circle id="Эллипс_10" data-name="Эллипс 10" cx="1.253" cy="1.253" r="1.253" transform="translate(18.935 7.717)" fill="#fff"/>
    </g>
  </g>
</svg>
